<svg width="45" height="44" viewBox="0 0 45 44" fill="none" xmlns="http://www.w3.org/2000/svg">
<rect x="0.37207" width="43.9614" height="43.9596" rx="21.9798" fill="#EFFAFF"/>
<path d="M28.4778 11.9795V13.2295H16.2278C15.9628 13.2303 15.7089 13.3359 15.5216 13.5233C15.3342 13.7106 15.2286 13.9645 15.2278 14.2295V30.4795H13.9778C13.8453 30.4791 13.7183 30.4263 13.6247 30.3326C13.531 30.2389 13.4782 30.112 13.4778 29.9795V12.4795C13.4786 12.2145 13.5842 11.9606 13.7716 11.7733C13.9589 11.5859 14.2128 11.4803 14.4778 11.4795H27.9778C28.1103 11.4799 28.2372 11.5327 28.3309 11.6264C28.4246 11.7201 28.4774 11.847 28.4778 11.9795Z" fill="#00608C"/>
<path d="M19.6653 17.1621C19.5911 17.194 19.5279 17.2469 19.4834 17.3144C19.439 17.3818 19.4153 17.4608 19.4153 17.5416C19.4153 17.6224 19.439 17.7014 19.4834 17.7688C19.5279 17.8363 19.5911 17.8892 19.6653 17.9211V17.1621ZM20.5403 19.7961C20.6146 19.7642 20.6778 19.7113 20.7223 19.6438C20.7667 19.5764 20.7904 19.4974 20.7904 19.4166C20.7904 19.3358 20.7667 19.2568 20.7223 19.1894C20.6778 19.1219 20.6146 19.069 20.5403 19.0371V19.7961Z" fill="#00608C"/>
<path d="M29.9928 13.9795H16.4628C16.3341 13.9795 16.2107 14.0306 16.1197 14.1215C16.0286 14.2125 15.9774 14.3358 15.9773 14.4645V31.9945C15.9774 32.1231 16.0286 32.2464 16.1195 32.3373C16.2104 32.4282 16.3337 32.4794 16.4623 32.4795H29.9923C30.1209 32.4795 30.2443 32.4284 30.3352 32.3374C30.4262 32.2465 30.4773 32.1231 30.4773 31.9945V14.4645C30.4773 14.3359 30.4262 14.2125 30.3352 14.1215C30.2443 14.0306 30.1214 13.9795 29.9928 13.9795ZM23.6028 16.9795H27.6028C27.7354 16.9795 27.8626 17.0322 27.9563 17.1259C28.0501 17.2197 28.1028 17.3469 28.1028 17.4795C28.1028 17.6121 28.0501 17.7393 27.9563 17.833C27.8626 17.9268 27.7354 17.9795 27.6028 17.9795H23.6028C23.4702 17.9795 23.343 17.9268 23.2492 17.833C23.1555 17.7393 23.1028 17.6121 23.1028 17.4795C23.1028 17.3469 23.1555 17.2197 23.2492 17.1259C23.343 17.0322 23.4702 16.9795 23.6028 16.9795ZM23.6028 18.9795H27.6028C27.7354 18.9795 27.8626 19.0322 27.9563 19.1259C28.0501 19.2197 28.1028 19.3469 28.1028 19.4795C28.1028 19.6121 28.0501 19.7393 27.9563 19.833C27.8626 19.9268 27.7354 19.9795 27.6028 19.9795H23.6028C23.4702 19.9795 23.343 19.9268 23.2492 19.833C23.1555 19.7393 23.1028 19.6121 23.1028 19.4795C23.1028 19.3469 23.1555 19.2197 23.2492 19.1259C23.343 19.0322 23.4702 18.9795 23.6028 18.9795ZM18.5403 17.542C18.5555 17.2293 18.6743 16.9305 18.878 16.6927C19.0816 16.4549 19.3586 16.2916 19.6653 16.2285V15.9795C19.6653 15.8635 19.7114 15.7522 19.7934 15.6701C19.8755 15.5881 19.9868 15.542 20.1028 15.542C20.2188 15.542 20.3301 15.5881 20.4122 15.6701C20.4942 15.7522 20.5403 15.8635 20.5403 15.9795V16.2285C20.847 16.2916 21.1239 16.4549 21.3276 16.6927C21.5313 16.9305 21.6501 17.2293 21.6653 17.542C21.6653 17.658 21.6192 17.7693 21.5372 17.8514C21.4551 17.9334 21.3438 17.9795 21.2278 17.9795C21.1118 17.9795 21.0005 17.9334 20.9184 17.8514C20.8364 17.7693 20.7903 17.658 20.7903 17.542C20.7846 17.4626 20.7587 17.386 20.7149 17.3196C20.6711 17.2531 20.611 17.199 20.5403 17.1625V18.1035C20.847 18.1666 21.1239 18.3299 21.3276 18.5677C21.5313 18.8055 21.6501 19.1043 21.6653 19.417C21.6501 19.7297 21.5313 20.0285 21.3276 20.2663C21.1239 20.5041 20.847 20.6674 20.5403 20.7305V20.9795C20.5403 21.0955 20.4942 21.2068 20.4122 21.2889C20.3301 21.3709 20.2188 21.417 20.1028 21.417C19.9868 21.417 19.8755 21.3709 19.7934 21.2889C19.7114 21.2068 19.6653 21.0955 19.6653 20.9795V20.7305C19.3586 20.6674 19.0816 20.5041 18.878 20.2663C18.6743 20.0285 18.5555 19.7297 18.5403 19.417C18.5403 19.301 18.5864 19.1897 18.6684 19.1076C18.7505 19.0256 18.8618 18.9795 18.9778 18.9795C19.0938 18.9795 19.2051 19.0256 19.2872 19.1076C19.3692 19.1897 19.4153 19.301 19.4153 19.417C19.421 19.4964 19.4469 19.573 19.4907 19.6394C19.5345 19.7059 19.5946 19.7599 19.6653 19.7965V18.8555C19.3586 18.7924 19.0816 18.6291 18.878 18.3913C18.6743 18.1535 18.5555 17.8547 18.5403 17.542ZM20.8528 27.9795H18.8528C18.7202 27.9795 18.593 27.9268 18.4992 27.833C18.4055 27.7393 18.3528 27.6121 18.3528 27.4795C18.3528 27.3469 18.4055 27.2197 18.4992 27.1259C18.593 27.0322 18.7202 26.9795 18.8528 26.9795H20.8528C20.9854 26.9795 21.1126 27.0322 21.2063 27.1259C21.3001 27.2197 21.3528 27.3469 21.3528 27.4795C21.3528 27.6121 21.3001 27.7393 21.2063 27.833C21.1126 27.9268 20.9854 27.9795 20.8528 27.9795ZM27.8528 30.257H26.6028C26.4921 30.257 26.3845 30.2203 26.2969 30.1526C26.2093 30.085 26.1467 29.9901 26.1188 29.883L26.0138 29.478C26.002 29.4269 25.9758 29.3803 25.9384 29.3435C25.9009 29.3068 25.8538 29.2815 25.8025 29.2707C25.7512 29.2598 25.6979 29.2638 25.6488 29.2822C25.5997 29.3006 25.5568 29.3326 25.5253 29.3745L25.0333 30.0265C24.9754 30.1029 24.8969 30.1612 24.807 30.1945C24.717 30.2277 24.6195 30.2345 24.5258 30.214C24.4719 30.2004 24.4198 30.1803 24.3708 30.154C23.9003 29.901 24.0163 29.3175 24.1293 28.753C24.1518 28.6385 24.1853 28.4705 24.2063 28.324C23.6225 28.7774 23.1368 29.3447 22.7788 29.9915C22.7089 30.1035 22.5976 30.1834 22.4691 30.2136C22.3405 30.2439 22.2053 30.2221 22.0928 30.1529C21.9803 30.0838 21.8997 29.973 21.8686 29.8447C21.8375 29.7164 21.8584 29.5809 21.9268 29.468C22.3968 28.703 23.3258 27.396 24.2693 27.2365C24.3745 27.2128 24.4834 27.2104 24.5896 27.2293C24.6958 27.2481 24.7972 27.288 24.8878 27.3465C25.0326 27.4718 25.1392 27.6353 25.1956 27.8183C25.2519 28.0013 25.2556 28.1965 25.2063 28.3815C25.3769 28.3027 25.5629 28.2624 25.7508 28.2637C25.9388 28.2649 26.1242 28.3075 26.2938 28.3885C26.4634 28.4695 26.6131 28.5869 26.7322 28.7324C26.8513 28.8778 26.9368 29.0477 26.9828 29.23L26.9898 29.257H27.8528C27.9854 29.257 28.1126 29.3097 28.2064 29.4034C28.3001 29.4972 28.3528 29.6244 28.3528 29.757C28.3528 29.8896 28.3001 30.0168 28.2064 30.1105C28.1126 30.2043 27.9854 30.257 27.8528 30.257ZM27.8528 25.9795H18.8528C18.7202 25.9795 18.593 25.9268 18.4992 25.833C18.4055 25.7393 18.3528 25.6121 18.3528 25.4795C18.3528 25.3469 18.4055 25.2197 18.4992 25.1259C18.593 25.0322 18.7202 24.9795 18.8528 24.9795H27.8528C27.9854 24.9795 28.1126 25.0322 28.2064 25.1259C28.3001 25.2197 28.3528 25.3469 28.3528 25.4795C28.3528 25.6121 28.3001 25.7393 28.2064 25.833C28.1126 25.9268 27.9854 25.9795 27.8528 25.9795ZM27.8528 23.9795H18.8528C18.7202 23.9795 18.593 23.9268 18.4992 23.833C18.4055 23.7393 18.3528 23.6121 18.3528 23.4795C18.3528 23.3469 18.4055 23.2197 18.4992 23.1259C18.593 23.0322 18.7202 22.9795 18.8528 22.9795H27.8528C27.9854 22.9795 28.1126 23.0322 28.2064 23.1259C28.3001 23.2197 28.3528 23.3469 28.3528 23.4795C28.3528 23.6121 28.3001 23.7393 28.2064 23.833C28.1126 23.9268 27.9854 23.9795 27.8528 23.9795Z" fill="#00608C"/>
</svg>
