<svg width="45" height="45" viewBox="0 0 45 45" fill="none" xmlns="http://www.w3.org/2000/svg">
<rect x="0.87207" y="0.5" width="43.9614" height="43.9596" rx="21.9798" fill="#FFF5F3"/>
<g clip-path="url(#clip0_6180_15369)">
<path d="M32.5802 22.4538C32.7951 22.3746 32.906 22.1363 32.8276 21.9205L32.566 21.2005L30.5736 23.1929L32.5802 22.4538ZM30.6944 16.054L29.4944 12.7541C29.4759 12.7026 29.4472 12.6553 29.4102 12.6149C29.3731 12.5746 29.3284 12.542 29.2786 12.5191C29.2236 12.4935 29.1636 12.4801 29.1028 12.48C29.0536 12.48 29.0053 12.4883 28.9586 12.5058L27.6345 12.9941L30.6944 16.054ZM12.8783 18.8714L14.2516 22.6471L17.5473 19.3514L15.9141 19.9531C15.6999 20.0347 15.4583 19.9231 15.3791 19.7064C15.2991 19.4906 15.4099 19.2506 15.6258 19.1714L17.7007 18.4064C17.7468 18.3893 17.7956 18.3806 17.8449 18.3806C18.014 18.3806 18.174 18.4848 18.2357 18.6531C18.2365 18.6556 18.2357 18.6581 18.2365 18.6606L21.7289 15.1682L13.1258 18.3381C12.91 18.4173 12.7992 18.6556 12.8783 18.8714ZM12.975 25.6912L19.6415 32.3576C19.804 32.5201 20.0681 32.5201 20.2306 32.3576L32.7302 19.8581C32.8927 19.6956 32.8927 19.4314 32.7302 19.2689L26.0637 12.6025C26.0253 12.5636 25.9795 12.5327 25.929 12.5117C25.8785 12.4906 25.8243 12.4799 25.7696 12.48C25.6629 12.48 25.5563 12.5208 25.4746 12.6016L12.975 25.1012C12.897 25.1795 12.8532 25.2856 12.8532 25.3962C12.8532 25.5068 12.897 25.6128 12.975 25.6912ZM27.9745 20.9347L29.6411 19.2681C29.7195 19.1902 29.8256 19.1465 29.9361 19.1465C30.0466 19.1465 30.1527 19.1902 30.2311 19.2681C30.3936 19.4306 30.3936 19.6947 30.2311 19.8572L28.5645 21.5239C28.402 21.6864 28.1378 21.6864 27.9753 21.5239C27.8128 21.3613 27.812 21.098 27.9745 20.9347ZM20.7789 20.4055C21.0739 20.1106 21.4747 19.9689 21.9206 19.9689C22.6572 19.9689 23.518 20.3547 24.238 21.0755C24.7647 21.6022 25.1346 22.2322 25.2788 22.8488C25.4388 23.5363 25.3071 24.1346 24.908 24.5345C24.5088 24.9345 23.9105 25.0662 23.2222 24.9053C22.6055 24.7612 21.9756 24.392 21.4489 23.8646C20.2914 22.708 19.9965 21.188 20.7789 20.4055ZM15.4749 25.1012L17.1416 23.4346C17.22 23.3567 17.326 23.313 17.4365 23.313C17.5471 23.313 17.6531 23.3567 17.7315 23.4346C17.894 23.5971 17.894 23.8612 17.7315 24.0237L16.0649 25.6904C15.9024 25.8529 15.6383 25.8529 15.4758 25.6904C15.3133 25.5279 15.3124 25.2645 15.4749 25.1012Z" fill="#EA401A"/>
</g>
<defs>
<clipPath id="clip0_6180_15369">
<rect width="20" height="20" fill="white" transform="matrix(-1 0 0 -1 32.8528 32.4795)"/>
</clipPath>
</defs>
</svg>
