<svg width="45" height="45" viewBox="0 0 45 45" fill="none" xmlns="http://www.w3.org/2000/svg">
<rect x="0.705566" y="0.959961" width="43.9614" height="43.9596" rx="21.9798" fill="#FDE9EC"/>
<g clip-path="url(#clip0_6217_13245)">
<path d="M28.1355 14.248V17.4549H31.3421L28.1355 14.248Z" fill="#F13950"/>
<path d="M27.6082 18.5098C27.3169 18.5098 27.0808 18.2737 27.0808 17.9824V13.9395H19.5222C18.6499 13.9395 17.9402 14.6492 17.9402 15.5215V21.4168C18.1139 21.4011 18.2897 21.3926 18.4675 21.3926C20.265 21.3926 21.8741 22.2144 22.9389 23.502H28.6628C28.9541 23.502 29.1902 23.7381 29.1902 24.0293C29.1902 24.3205 28.9541 24.5566 28.6628 24.5566H23.6337C23.9706 25.2141 24.1778 25.9302 24.2441 26.666H28.6628C28.9541 26.666 29.1902 26.9021 29.1902 27.1934C29.1902 27.4846 28.9541 27.7207 28.6628 27.7207H24.2441C24.0864 29.4623 23.1559 30.9841 21.7989 31.9395H30.0691C30.9414 31.9395 31.6511 31.2298 31.6511 30.3574V18.5098H27.6082ZM28.6628 21.3926H20.9285C20.6372 21.3926 20.4011 21.1565 20.4011 20.8652C20.4011 20.574 20.6372 20.3379 20.9285 20.3379H28.6628C28.9541 20.3379 29.1902 20.574 29.1902 20.8652C29.1902 21.1565 28.9541 21.3926 28.6628 21.3926Z" fill="#F13950"/>
<path d="M18.4675 22.4473C15.8505 22.4473 13.7214 24.5764 13.7214 27.1934C13.7214 29.8104 15.8505 31.9395 18.4675 31.9395C21.0845 31.9395 23.2136 29.8104 23.2136 27.1934C23.2136 24.5764 21.0845 22.4473 18.4675 22.4473ZM19.8738 27.7207H18.4675C18.1763 27.7207 17.9402 27.4846 17.9402 27.1934V25.084C17.9402 24.7927 18.1763 24.5566 18.4675 24.5566C18.7588 24.5566 18.9949 24.7927 18.9949 25.084V26.666H19.8738C20.165 26.666 20.4011 26.9021 20.4011 27.1934C20.4011 27.4846 20.165 27.7207 19.8738 27.7207Z" fill="#F13950"/>
</g>
<defs>
<clipPath id="clip0_6217_13245">
<rect width="18" height="18" fill="white" transform="translate(13.6863 13.9395)"/>
</clipPath>
</defs>
</svg>
