<svg width="45" height="45" viewBox="0 0 45 45" fill="none" xmlns="http://www.w3.org/2000/svg">
<rect x="0.37207" y="0.959961" width="43.9614" height="43.9596" rx="21.9798" fill="#FEF1F9"/>
<path d="M22.3528 12.959C16.8494 12.959 12.3721 17.4363 12.3721 22.9397C12.3721 28.443 16.8494 32.9204 22.3528 32.9204C27.8561 32.9204 32.3334 28.443 32.3334 22.9397C32.3334 17.4363 27.8561 12.959 22.3528 12.959ZM22.3528 22.0608C23.8671 22.0608 25.0991 23.2928 25.0991 24.8071C25.0991 26.0141 24.3161 27.0409 23.2317 27.4084V28.8368H21.4738V27.4084C20.3894 27.0409 19.6064 26.0141 19.6064 24.8071H21.3642C21.3642 25.3522 21.8077 25.7956 22.3528 25.7956C22.8979 25.7956 23.3413 25.3522 23.3413 24.8071C23.3413 24.262 22.8979 23.8186 22.3528 23.8186C20.8384 23.8186 19.6064 22.5866 19.6064 21.0722C19.6064 19.8653 20.3894 18.8384 21.4738 18.471V17.0425H23.2317V18.471C24.3161 18.8384 25.0991 19.8653 25.0991 21.0722H23.3413C23.3413 20.5271 22.8979 20.0837 22.3528 20.0837C21.8077 20.0837 21.3642 20.5271 21.3642 21.0722C21.3642 21.6173 21.8077 22.0608 22.3528 22.0608Z" fill="#EC188B"/>
</svg>
