<svg width="44" height="44" viewBox="0 0 44 44" fill="none" xmlns="http://www.w3.org/2000/svg">
<rect x="0.0388184" width="43.9614" height="43.9596" rx="21.9798" fill="#E8F3FF"/>
<path d="M28.1445 11.9795V13.2295H15.8945C15.6296 13.2303 15.3757 13.3359 15.1883 13.5233C15.0009 13.7106 14.8953 13.9645 14.8945 14.2295V30.4795H13.6445C13.512 30.4791 13.3851 30.4263 13.2914 30.3326C13.1977 30.2389 13.1449 30.112 13.1445 29.9795V12.4795C13.1453 12.2145 13.2509 11.9606 13.4383 11.7733C13.6257 11.5859 13.8796 11.4803 14.1445 11.4795H27.6445C27.777 11.4799 27.904 11.5327 27.9976 11.6264C28.0913 11.7201 28.1441 11.847 28.1445 11.9795Z" fill="#087FF6"/>
<path d="M19.3321 17.1621C19.2579 17.194 19.1946 17.2469 19.1502 17.3144C19.1057 17.3818 19.082 17.4608 19.082 17.5416C19.082 17.6224 19.1057 17.7014 19.1502 17.7688C19.1946 17.8363 19.2579 17.8892 19.3321 17.9211V17.1621ZM20.2071 19.7961C20.2813 19.7642 20.3446 19.7113 20.389 19.6438C20.4335 19.5764 20.4572 19.4974 20.4572 19.4166C20.4572 19.3358 20.4335 19.2568 20.389 19.1894C20.3446 19.1219 20.2813 19.069 20.2071 19.0371V19.7961Z" fill="#087FF6"/>
<path d="M29.6595 13.9795H16.1295C16.0009 13.9795 15.8775 14.0306 15.7864 14.1215C15.6954 14.2125 15.6442 14.3358 15.644 14.4645V31.9945C15.6442 32.1231 15.6953 32.2464 15.7862 32.3373C15.8772 32.4282 16.0005 32.4794 16.129 32.4795H29.659C29.7877 32.4795 29.911 32.4284 30.002 32.3374C30.0929 32.2465 30.144 32.1231 30.144 31.9945V14.4645C30.144 14.3359 30.0929 14.2125 30.002 14.1215C29.911 14.0306 29.7882 13.9795 29.6595 13.9795ZM23.2695 16.9795H27.2695C27.4022 16.9795 27.5293 17.0322 27.6231 17.1259C27.7169 17.2197 27.7695 17.3469 27.7695 17.4795C27.7695 17.6121 27.7169 17.7393 27.6231 17.833C27.5293 17.9268 27.4022 17.9795 27.2695 17.9795H23.2695C23.1369 17.9795 23.0098 17.9268 22.916 17.833C22.8222 17.7393 22.7695 17.6121 22.7695 17.4795C22.7695 17.3469 22.8222 17.2197 22.916 17.1259C23.0098 17.0322 23.1369 16.9795 23.2695 16.9795ZM23.2695 18.9795H27.2695C27.4022 18.9795 27.5293 19.0322 27.6231 19.1259C27.7169 19.2197 27.7695 19.3469 27.7695 19.4795C27.7695 19.6121 27.7169 19.7393 27.6231 19.833C27.5293 19.9268 27.4022 19.9795 27.2695 19.9795H23.2695C23.1369 19.9795 23.0098 19.9268 22.916 19.833C22.8222 19.7393 22.7695 19.6121 22.7695 19.4795C22.7695 19.3469 22.8222 19.2197 22.916 19.1259C23.0098 19.0322 23.1369 18.9795 23.2695 18.9795ZM18.207 17.542C18.2223 17.2293 18.341 16.9305 18.5447 16.6927C18.7484 16.4549 19.0254 16.2916 19.332 16.2285V15.9795C19.332 15.8635 19.3781 15.7522 19.4602 15.6701C19.5422 15.5881 19.6535 15.542 19.7695 15.542C19.8856 15.542 19.9969 15.5881 20.0789 15.6701C20.161 15.7522 20.207 15.8635 20.207 15.9795V16.2285C20.5137 16.2916 20.7907 16.4549 20.9944 16.6927C21.198 16.9305 21.3168 17.2293 21.332 17.542C21.332 17.658 21.286 17.7693 21.2039 17.8514C21.1219 17.9334 21.0106 17.9795 20.8945 17.9795C20.7785 17.9795 20.6672 17.9334 20.5852 17.8514C20.5031 17.7693 20.457 17.658 20.457 17.542C20.4514 17.4626 20.4254 17.386 20.3816 17.3196C20.3378 17.2531 20.2777 17.199 20.207 17.1625V18.1035C20.5137 18.1666 20.7907 18.3299 20.9944 18.5677C21.198 18.8055 21.3168 19.1043 21.332 19.417C21.3168 19.7297 21.198 20.0285 20.9944 20.2663C20.7907 20.5041 20.5137 20.6674 20.207 20.7305V20.9795C20.207 21.0955 20.161 21.2068 20.0789 21.2889C19.9969 21.3709 19.8856 21.417 19.7695 21.417C19.6535 21.417 19.5422 21.3709 19.4602 21.2889C19.3781 21.2068 19.332 21.0955 19.332 20.9795V20.7305C19.0254 20.6674 18.7484 20.5041 18.5447 20.2663C18.341 20.0285 18.2223 19.7297 18.207 19.417C18.207 19.301 18.2531 19.1897 18.3352 19.1076C18.4172 19.0256 18.5285 18.9795 18.6445 18.9795C18.7606 18.9795 18.8719 19.0256 18.9539 19.1076C19.036 19.1897 19.082 19.301 19.082 19.417C19.0877 19.4964 19.1137 19.573 19.1575 19.6394C19.2012 19.7059 19.2614 19.7599 19.332 19.7965V18.8555C19.0254 18.7924 18.7484 18.6291 18.5447 18.3913C18.341 18.1535 18.2223 17.8547 18.207 17.542ZM20.5195 27.9795H18.5195C18.3869 27.9795 18.2598 27.9268 18.166 27.833C18.0722 27.7393 18.0195 27.6121 18.0195 27.4795C18.0195 27.3469 18.0722 27.2197 18.166 27.1259C18.2598 27.0322 18.3869 26.9795 18.5195 26.9795H20.5195C20.6522 26.9795 20.7793 27.0322 20.8731 27.1259C20.9669 27.2197 21.0195 27.3469 21.0195 27.4795C21.0195 27.6121 20.9669 27.7393 20.8731 27.833C20.7793 27.9268 20.6522 27.9795 20.5195 27.9795ZM27.5195 30.257H26.2695C26.1588 30.257 26.0513 30.2203 25.9637 30.1526C25.8761 30.085 25.8134 29.9901 25.7855 29.883L25.6805 29.478C25.6687 29.4269 25.6425 29.3803 25.6051 29.3435C25.5677 29.3068 25.5206 29.2815 25.4693 29.2707C25.418 29.2598 25.3646 29.2638 25.3155 29.2822C25.2664 29.3006 25.2236 29.3326 25.192 29.3745L24.7 30.0265C24.6422 30.1029 24.5636 30.1612 24.4737 30.1945C24.3838 30.2277 24.2862 30.2345 24.1925 30.214C24.1386 30.2004 24.0865 30.1803 24.0375 30.154C23.567 29.901 23.683 29.3175 23.796 28.753C23.8185 28.6385 23.852 28.4705 23.873 28.324C23.2892 28.7774 22.8036 29.3447 22.4455 29.9915C22.3757 30.1035 22.2643 30.1834 22.1358 30.2136C22.0073 30.2439 21.872 30.2221 21.7595 30.1529C21.647 30.0838 21.5664 29.973 21.5353 29.8447C21.5042 29.7164 21.5252 29.5809 21.5935 29.468C22.0635 28.703 22.9925 27.396 23.936 27.2365C24.0413 27.2128 24.1502 27.2104 24.2564 27.2293C24.3626 27.2481 24.4639 27.288 24.5545 27.3465C24.6993 27.4718 24.806 27.6353 24.8623 27.8183C24.9186 28.0013 24.9224 28.1965 24.873 28.3815C25.0437 28.3027 25.2296 28.2624 25.4176 28.2637C25.6056 28.2649 25.791 28.3075 25.9606 28.3885C26.1302 28.4695 26.2799 28.5869 26.399 28.7324C26.518 28.8778 26.6036 29.0477 26.6495 29.23L26.6565 29.257H27.5195C27.6522 29.257 27.7793 29.3097 27.8731 29.4034C27.9669 29.4972 28.0195 29.6244 28.0195 29.757C28.0195 29.8896 27.9669 30.0168 27.8731 30.1105C27.7793 30.2043 27.6522 30.257 27.5195 30.257ZM27.5195 25.9795H18.5195C18.3869 25.9795 18.2598 25.9268 18.166 25.833C18.0722 25.7393 18.0195 25.6121 18.0195 25.4795C18.0195 25.3469 18.0722 25.2197 18.166 25.1259C18.2598 25.0322 18.3869 24.9795 18.5195 24.9795H27.5195C27.6522 24.9795 27.7793 25.0322 27.8731 25.1259C27.9669 25.2197 28.0195 25.3469 28.0195 25.4795C28.0195 25.6121 27.9669 25.7393 27.8731 25.833C27.7793 25.9268 27.6522 25.9795 27.5195 25.9795ZM27.5195 23.9795H18.5195C18.3869 23.9795 18.2598 23.9268 18.166 23.833C18.0722 23.7393 18.0195 23.6121 18.0195 23.4795C18.0195 23.3469 18.0722 23.2197 18.166 23.1259C18.2598 23.0322 18.3869 22.9795 18.5195 22.9795H27.5195C27.6522 22.9795 27.7793 23.0322 27.8731 23.1259C27.9669 23.2197 28.0195 23.3469 28.0195 23.4795C28.0195 23.6121 27.9669 23.7393 27.8731 23.833C27.7793 23.9268 27.6522 23.9795 27.5195 23.9795Z" fill="#087FF6"/>
</svg>
