<svg width="45" height="45" viewBox="0 0 45 45" fill="none" xmlns="http://www.w3.org/2000/svg">
<rect x="0.538818" y="0.5" width="43.9614" height="43.9596" rx="21.9798" fill="#E8F3FF"/>
<path d="M28.6445 12.4795V13.7295H16.3945C16.1296 13.7303 15.8757 13.8359 15.6883 14.0233C15.5009 14.2106 15.3953 14.4645 15.3945 14.7295V30.9795H14.1445C14.012 30.9791 13.8851 30.9263 13.7914 30.8326C13.6977 30.7389 13.6449 30.612 13.6445 30.4795V12.9795C13.6453 12.7145 13.7509 12.4606 13.9383 12.2733C14.1257 12.0859 14.3796 11.9803 14.6445 11.9795H28.1445C28.277 11.9799 28.404 12.0327 28.4976 12.1264C28.5913 12.2201 28.6441 12.347 28.6445 12.4795Z" fill="#087FF6"/>
<path d="M19.8321 17.6621C19.7579 17.694 19.6946 17.7469 19.6502 17.8144C19.6057 17.8818 19.582 17.9608 19.582 18.0416C19.582 18.1224 19.6057 18.2014 19.6502 18.2688C19.6946 18.3363 19.7579 18.3892 19.8321 18.4211V17.6621ZM20.7071 20.2961C20.7813 20.2642 20.8446 20.2113 20.889 20.1438C20.9335 20.0764 20.9572 19.9974 20.9572 19.9166C20.9572 19.8358 20.9335 19.7568 20.889 19.6894C20.8446 19.6219 20.7813 19.569 20.7071 19.5371V20.2961Z" fill="#087FF6"/>
<path d="M30.1595 14.4795H16.6295C16.5009 14.4795 16.3775 14.5306 16.2864 14.6215C16.1954 14.7125 16.1442 14.8358 16.144 14.9645V32.4945C16.1442 32.6231 16.1953 32.7464 16.2862 32.8373C16.3772 32.9282 16.5005 32.9794 16.629 32.9795H30.159C30.2877 32.9795 30.411 32.9284 30.502 32.8374C30.5929 32.7465 30.644 32.6231 30.644 32.4945V14.9645C30.644 14.8359 30.5929 14.7125 30.502 14.6215C30.411 14.5306 30.2882 14.4795 30.1595 14.4795ZM23.7695 17.4795H27.7695C27.9022 17.4795 28.0293 17.5322 28.1231 17.6259C28.2169 17.7197 28.2695 17.8469 28.2695 17.9795C28.2695 18.1121 28.2169 18.2393 28.1231 18.333C28.0293 18.4268 27.9022 18.4795 27.7695 18.4795H23.7695C23.6369 18.4795 23.5098 18.4268 23.416 18.333C23.3222 18.2393 23.2695 18.1121 23.2695 17.9795C23.2695 17.8469 23.3222 17.7197 23.416 17.6259C23.5098 17.5322 23.6369 17.4795 23.7695 17.4795ZM23.7695 19.4795H27.7695C27.9022 19.4795 28.0293 19.5322 28.1231 19.6259C28.2169 19.7197 28.2695 19.8469 28.2695 19.9795C28.2695 20.1121 28.2169 20.2393 28.1231 20.333C28.0293 20.4268 27.9022 20.4795 27.7695 20.4795H23.7695C23.6369 20.4795 23.5098 20.4268 23.416 20.333C23.3222 20.2393 23.2695 20.1121 23.2695 19.9795C23.2695 19.8469 23.3222 19.7197 23.416 19.6259C23.5098 19.5322 23.6369 19.4795 23.7695 19.4795ZM18.707 18.042C18.7223 17.7293 18.841 17.4305 19.0447 17.1927C19.2484 16.9549 19.5254 16.7916 19.832 16.7285V16.4795C19.832 16.3635 19.8781 16.2522 19.9602 16.1701C20.0422 16.0881 20.1535 16.042 20.2695 16.042C20.3856 16.042 20.4969 16.0881 20.5789 16.1701C20.661 16.2522 20.707 16.3635 20.707 16.4795V16.7285C21.0137 16.7916 21.2907 16.9549 21.4944 17.1927C21.698 17.4305 21.8168 17.7293 21.832 18.042C21.832 18.158 21.786 18.2693 21.7039 18.3514C21.6219 18.4334 21.5106 18.4795 21.3945 18.4795C21.2785 18.4795 21.1672 18.4334 21.0852 18.3514C21.0031 18.2693 20.957 18.158 20.957 18.042C20.9514 17.9626 20.9254 17.886 20.8816 17.8196C20.8378 17.7531 20.7777 17.699 20.707 17.6625V18.6035C21.0137 18.6666 21.2907 18.8299 21.4944 19.0677C21.698 19.3055 21.8168 19.6043 21.832 19.917C21.8168 20.2297 21.698 20.5285 21.4944 20.7663C21.2907 21.0041 21.0137 21.1674 20.707 21.2305V21.4795C20.707 21.5955 20.661 21.7068 20.5789 21.7889C20.4969 21.8709 20.3856 21.917 20.2695 21.917C20.1535 21.917 20.0422 21.8709 19.9602 21.7889C19.8781 21.7068 19.832 21.5955 19.832 21.4795V21.2305C19.5254 21.1674 19.2484 21.0041 19.0447 20.7663C18.841 20.5285 18.7223 20.2297 18.707 19.917C18.707 19.801 18.7531 19.6897 18.8352 19.6076C18.9172 19.5256 19.0285 19.4795 19.1445 19.4795C19.2606 19.4795 19.3719 19.5256 19.4539 19.6076C19.536 19.6897 19.582 19.801 19.582 19.917C19.5877 19.9964 19.6137 20.073 19.6575 20.1394C19.7012 20.2059 19.7614 20.2599 19.832 20.2965V19.3555C19.5254 19.2924 19.2484 19.1291 19.0447 18.8913C18.841 18.6535 18.7223 18.3547 18.707 18.042ZM21.0195 28.4795H19.0195C18.8869 28.4795 18.7598 28.4268 18.666 28.333C18.5722 28.2393 18.5195 28.1121 18.5195 27.9795C18.5195 27.8469 18.5722 27.7197 18.666 27.6259C18.7598 27.5322 18.8869 27.4795 19.0195 27.4795H21.0195C21.1522 27.4795 21.2793 27.5322 21.3731 27.6259C21.4669 27.7197 21.5195 27.8469 21.5195 27.9795C21.5195 28.1121 21.4669 28.2393 21.3731 28.333C21.2793 28.4268 21.1522 28.4795 21.0195 28.4795ZM28.0195 30.757H26.7695C26.6588 30.757 26.5513 30.7203 26.4637 30.6526C26.3761 30.585 26.3134 30.4901 26.2855 30.383L26.1805 29.978C26.1687 29.9269 26.1425 29.8803 26.1051 29.8435C26.0677 29.8068 26.0206 29.7815 25.9693 29.7707C25.918 29.7598 25.8646 29.7638 25.8155 29.7822C25.7664 29.8006 25.7236 29.8326 25.692 29.8745L25.2 30.5265C25.1422 30.6029 25.0636 30.6612 24.9737 30.6945C24.8838 30.7277 24.7862 30.7345 24.6925 30.714C24.6386 30.7004 24.5865 30.6803 24.5375 30.654C24.067 30.401 24.183 29.8175 24.296 29.253C24.3185 29.1385 24.352 28.9705 24.373 28.824C23.7892 29.2774 23.3036 29.8447 22.9455 30.4915C22.8757 30.6035 22.7643 30.6834 22.6358 30.7136C22.5073 30.7439 22.372 30.7221 22.2595 30.6529C22.147 30.5838 22.0664 30.473 22.0353 30.3447C22.0042 30.2164 22.0252 30.0809 22.0935 29.968C22.5635 29.203 23.4925 27.896 24.436 27.7365C24.5413 27.7128 24.6502 27.7104 24.7564 27.7293C24.8626 27.7481 24.9639 27.788 25.0545 27.8465C25.1993 27.9718 25.306 28.1353 25.3623 28.3183C25.4186 28.5013 25.4224 28.6965 25.373 28.8815C25.5437 28.8027 25.7296 28.7624 25.9176 28.7637C26.1056 28.7649 26.291 28.8075 26.4606 28.8885C26.6302 28.9695 26.7799 29.0869 26.899 29.2324C27.018 29.3778 27.1036 29.5477 27.1495 29.73L27.1565 29.757H28.0195C28.1522 29.757 28.2793 29.8097 28.3731 29.9034C28.4669 29.9972 28.5195 30.1244 28.5195 30.257C28.5195 30.3896 28.4669 30.5168 28.3731 30.6105C28.2793 30.7043 28.1522 30.757 28.0195 30.757ZM28.0195 26.4795H19.0195C18.8869 26.4795 18.7598 26.4268 18.666 26.333C18.5722 26.2393 18.5195 26.1121 18.5195 25.9795C18.5195 25.8469 18.5722 25.7197 18.666 25.6259C18.7598 25.5322 18.8869 25.4795 19.0195 25.4795H28.0195C28.1522 25.4795 28.2793 25.5322 28.3731 25.6259C28.4669 25.7197 28.5195 25.8469 28.5195 25.9795C28.5195 26.1121 28.4669 26.2393 28.3731 26.333C28.2793 26.4268 28.1522 26.4795 28.0195 26.4795ZM28.0195 24.4795H19.0195C18.8869 24.4795 18.7598 24.4268 18.666 24.333C18.5722 24.2393 18.5195 24.1121 18.5195 23.9795C18.5195 23.8469 18.5722 23.7197 18.666 23.6259C18.7598 23.5322 18.8869 23.4795 19.0195 23.4795H28.0195C28.1522 23.4795 28.2793 23.5322 28.3731 23.6259C28.4669 23.7197 28.5195 23.8469 28.5195 23.9795C28.5195 24.1121 28.4669 24.2393 28.3731 24.333C28.2793 24.4268 28.1522 24.4795 28.0195 24.4795Z" fill="#087FF6"/>
</svg>
