<svg width="44" height="45" viewBox="0 0 44 45" fill="none" xmlns="http://www.w3.org/2000/svg">
<rect x="0.0388184" y="0.5" width="43.9614" height="43.9596" rx="21.9798" fill="#F5F5FF"/>
<g clip-path="url(#clip0_6180_15362)">
<path d="M30.2241 28.8432H27.2014C25.2966 28.8432 23.7469 27.2119 23.7469 25.2069C23.7469 23.2018 25.2966 21.5706 27.2014 21.5706H30.2241C30.2808 21.5706 30.3369 21.5589 30.3894 21.5361C30.4418 21.5132 30.4894 21.4797 30.5295 21.4375C30.5696 21.3953 30.6014 21.3452 30.6231 21.29C30.6448 21.2349 30.6559 21.1757 30.6559 21.116V19.7524C30.6559 18.7992 29.9535 18.0241 29.0661 17.9489L26.5862 13.3893C26.3563 12.9676 25.9852 12.6662 25.5412 12.5411C25.0992 12.4168 24.6371 12.482 24.2415 12.7244L15.7401 17.9342H14.247C13.2944 17.9342 12.5198 18.7496 12.5198 19.7524V30.6613C12.5198 31.664 13.2944 32.4795 14.247 32.4795H28.9286C29.8812 32.4795 30.6559 31.6641 30.6559 30.6613V29.2977C30.6559 29.238 30.6448 29.1789 30.6231 29.1237C30.6014 29.0685 30.5696 29.0184 30.5295 28.9762C30.4894 28.934 30.4418 28.9005 30.3894 28.8777C30.3369 28.8548 30.2808 28.8431 30.2241 28.8432ZM27.1217 16.2043L28.0626 17.9342H24.2989L27.1217 16.2043ZM17.4566 17.9342L24.6763 13.51C24.8715 13.3897 25.0996 13.3578 25.3177 13.4191C25.5382 13.4812 25.7221 13.6312 25.8364 13.8412L25.8373 13.8428L19.1613 17.9342H17.4566Z" fill="#4D56FF"/>
<path d="M30.2239 22.4795H27.2012C25.7725 22.4795 24.6104 23.7028 24.6104 25.2067C24.6104 26.7106 25.7725 27.9339 27.2012 27.9339H30.2239C30.9383 27.9339 31.5193 27.3223 31.5193 26.5703V23.8431C31.5193 23.0912 30.9383 22.4795 30.2239 22.4795ZM27.2012 26.1158C26.7251 26.1158 26.3376 25.7078 26.3376 25.2067C26.3376 24.7056 26.7251 24.2977 27.2012 24.2977C27.6773 24.2977 28.0648 24.7056 28.0648 25.2067C28.0649 25.7078 27.6773 26.1158 27.2012 26.1158Z" fill="#4D56FF"/>
</g>
<defs>
<clipPath id="clip0_6180_15362">
<rect width="19" height="20" fill="white" transform="translate(12.5195 12.4795)"/>
</clipPath>
</defs>
</svg>
