<svg width="45" height="44" viewBox="0 0 45 44" fill="none" xmlns="http://www.w3.org/2000/svg">
<rect x="0.705322" width="43.9614" height="43.9596" rx="21.9798" fill="#FFF7E6"/>
<path d="M28.811 11.9795V13.2295H16.561C16.2961 13.2303 16.0422 13.3359 15.8548 13.5233C15.6674 13.7106 15.5618 13.9645 15.561 14.2295V30.4795H14.311C14.1785 30.4791 14.0516 30.4263 13.9579 30.3326C13.8642 30.2389 13.8114 30.112 13.811 29.9795V12.4795C13.8118 12.2145 13.9174 11.9606 14.1048 11.7733C14.2922 11.5859 14.5461 11.4803 14.811 11.4795H28.311C28.4435 11.4799 28.5705 11.5327 28.6642 11.6264C28.7578 11.7201 28.8106 11.847 28.811 11.9795Z" fill="#FFAA00"/>
<path d="M19.9986 17.1621C19.9244 17.194 19.8611 17.2469 19.8167 17.3144C19.7722 17.3818 19.7485 17.4608 19.7485 17.5416C19.7485 17.6224 19.7722 17.7014 19.8167 17.7688C19.8611 17.8363 19.9244 17.8892 19.9986 17.9211V17.1621ZM20.8736 19.7961C20.9478 19.7642 21.0111 19.7113 21.0555 19.6438C21.1 19.5764 21.1237 19.4974 21.1237 19.4166C21.1237 19.3358 21.1 19.2568 21.0555 19.1894C21.0111 19.1219 20.9478 19.069 20.8736 19.0371V19.7961Z" fill="#FFAA00"/>
<path d="M30.326 13.9795H16.796C16.6674 13.9795 16.544 14.0306 16.4529 14.1215C16.3619 14.2125 16.3107 14.3358 16.3105 14.4645V31.9945C16.3107 32.1231 16.3618 32.2464 16.4527 32.3373C16.5437 32.4282 16.667 32.4794 16.7955 32.4795H30.3255C30.4542 32.4795 30.5775 32.4284 30.6685 32.3374C30.7594 32.2465 30.8105 32.1231 30.8105 31.9945V14.4645C30.8105 14.3359 30.7594 14.2125 30.6685 14.1215C30.5775 14.0306 30.4547 13.9795 30.326 13.9795ZM23.936 16.9795H27.936C28.0687 16.9795 28.1958 17.0322 28.2896 17.1259C28.3834 17.2197 28.436 17.3469 28.436 17.4795C28.436 17.6121 28.3834 17.7393 28.2896 17.833C28.1958 17.9268 28.0687 17.9795 27.936 17.9795H23.936C23.8034 17.9795 23.6763 17.9268 23.5825 17.833C23.4887 17.7393 23.436 17.6121 23.436 17.4795C23.436 17.3469 23.4887 17.2197 23.5825 17.1259C23.6763 17.0322 23.8034 16.9795 23.936 16.9795ZM23.936 18.9795H27.936C28.0687 18.9795 28.1958 19.0322 28.2896 19.1259C28.3834 19.2197 28.436 19.3469 28.436 19.4795C28.436 19.6121 28.3834 19.7393 28.2896 19.833C28.1958 19.9268 28.0687 19.9795 27.936 19.9795H23.936C23.8034 19.9795 23.6763 19.9268 23.5825 19.833C23.4887 19.7393 23.436 19.6121 23.436 19.4795C23.436 19.3469 23.4887 19.2197 23.5825 19.1259C23.6763 19.0322 23.8034 18.9795 23.936 18.9795ZM18.8735 17.542C18.8888 17.2293 19.0076 16.9305 19.2112 16.6927C19.4149 16.4549 19.6919 16.2916 19.9985 16.2285V15.9795C19.9985 15.8635 20.0446 15.7522 20.1267 15.6701C20.2087 15.5881 20.32 15.542 20.436 15.542C20.5521 15.542 20.6634 15.5881 20.7454 15.6701C20.8275 15.7522 20.8735 15.8635 20.8735 15.9795V16.2285C21.1802 16.2916 21.4572 16.4549 21.6609 16.6927C21.8645 16.9305 21.9833 17.2293 21.9985 17.542C21.9985 17.658 21.9525 17.7693 21.8704 17.8514C21.7884 17.9334 21.6771 17.9795 21.561 17.9795C21.445 17.9795 21.3337 17.9334 21.2517 17.8514C21.1696 17.7693 21.1235 17.658 21.1235 17.542C21.1179 17.4626 21.0919 17.386 21.0481 17.3196C21.0043 17.2531 20.9442 17.199 20.8735 17.1625V18.1035C21.1802 18.1666 21.4572 18.3299 21.6609 18.5677C21.8645 18.8055 21.9833 19.1043 21.9985 19.417C21.9833 19.7297 21.8645 20.0285 21.6609 20.2663C21.4572 20.5041 21.1802 20.6674 20.8735 20.7305V20.9795C20.8735 21.0955 20.8275 21.2068 20.7454 21.2889C20.6634 21.3709 20.5521 21.417 20.436 21.417C20.32 21.417 20.2087 21.3709 20.1267 21.2889C20.0446 21.2068 19.9985 21.0955 19.9985 20.9795V20.7305C19.6919 20.6674 19.4149 20.5041 19.2112 20.2663C19.0076 20.0285 18.8888 19.7297 18.8735 19.417C18.8735 19.301 18.9196 19.1897 19.0017 19.1076C19.0837 19.0256 19.195 18.9795 19.311 18.9795C19.4271 18.9795 19.5384 19.0256 19.6204 19.1076C19.7025 19.1897 19.7485 19.301 19.7485 19.417C19.7542 19.4964 19.7802 19.573 19.824 19.6394C19.8677 19.7059 19.9279 19.7599 19.9985 19.7965V18.8555C19.6919 18.7924 19.4149 18.6291 19.2112 18.3913C19.0076 18.1535 18.8888 17.8547 18.8735 17.542ZM21.186 27.9795H19.186C19.0534 27.9795 18.9263 27.9268 18.8325 27.833C18.7387 27.7393 18.686 27.6121 18.686 27.4795C18.686 27.3469 18.7387 27.2197 18.8325 27.1259C18.9263 27.0322 19.0534 26.9795 19.186 26.9795H21.186C21.3187 26.9795 21.4458 27.0322 21.5396 27.1259C21.6334 27.2197 21.686 27.3469 21.686 27.4795C21.686 27.6121 21.6334 27.7393 21.5396 27.833C21.4458 27.9268 21.3187 27.9795 21.186 27.9795ZM28.186 30.257H26.936C26.8254 30.257 26.7178 30.2203 26.6302 30.1526C26.5426 30.085 26.4799 29.9901 26.452 29.883L26.347 29.478C26.3352 29.4269 26.309 29.3803 26.2716 29.3435C26.2342 29.3068 26.1871 29.2815 26.1358 29.2707C26.0845 29.2598 26.0311 29.2638 25.982 29.2822C25.9329 29.3006 25.8901 29.3326 25.8585 29.3745L25.3665 30.0265C25.3087 30.1029 25.2302 30.1612 25.1402 30.1945C25.0503 30.2277 24.9527 30.2345 24.859 30.214C24.8051 30.2004 24.7531 30.1803 24.704 30.154C24.2335 29.901 24.3495 29.3175 24.4625 28.753C24.485 28.6385 24.5185 28.4705 24.5395 28.324C23.9557 28.7774 23.4701 29.3447 23.112 29.9915C23.0422 30.1035 22.9308 30.1834 22.8023 30.2136C22.6738 30.2439 22.5385 30.2221 22.426 30.1529C22.3135 30.0838 22.2329 29.973 22.2018 29.8447C22.1707 29.7164 22.1917 29.5809 22.26 29.468C22.73 28.703 23.659 27.396 24.6025 27.2365C24.7078 27.2128 24.8167 27.2104 24.9229 27.2293C25.0291 27.2481 25.1304 27.288 25.221 27.3465C25.3658 27.4718 25.4725 27.6353 25.5288 27.8183C25.5851 28.0013 25.5889 28.1965 25.5395 28.3815C25.7102 28.3027 25.8961 28.2624 26.0841 28.2637C26.2721 28.2649 26.4575 28.3075 26.6271 28.3885C26.7967 28.4695 26.9464 28.5869 27.0655 28.7324C27.1845 28.8778 27.2701 29.0477 27.316 29.23L27.323 29.257H28.186C28.3187 29.257 28.4458 29.3097 28.5396 29.4034C28.6334 29.4972 28.686 29.6244 28.686 29.757C28.686 29.8896 28.6334 30.0168 28.5396 30.1105C28.4458 30.2043 28.3187 30.257 28.186 30.257ZM28.186 25.9795H19.186C19.0534 25.9795 18.9263 25.9268 18.8325 25.833C18.7387 25.7393 18.686 25.6121 18.686 25.4795C18.686 25.3469 18.7387 25.2197 18.8325 25.1259C18.9263 25.0322 19.0534 24.9795 19.186 24.9795H28.186C28.3187 24.9795 28.4458 25.0322 28.5396 25.1259C28.6334 25.2197 28.686 25.3469 28.686 25.4795C28.686 25.6121 28.6334 25.7393 28.5396 25.833C28.4458 25.9268 28.3187 25.9795 28.186 25.9795ZM28.186 23.9795H19.186C19.0534 23.9795 18.9263 23.9268 18.8325 23.833C18.7387 23.7393 18.686 23.6121 18.686 23.4795C18.686 23.3469 18.7387 23.2197 18.8325 23.1259C18.9263 23.0322 19.0534 22.9795 19.186 22.9795H28.186C28.3187 22.9795 28.4458 23.0322 28.5396 23.1259C28.6334 23.2197 28.686 23.3469 28.686 23.4795C28.686 23.6121 28.6334 23.7393 28.5396 23.833C28.4458 23.9268 28.3187 23.9795 28.186 23.9795Z" fill="#FFAA00"/>
</svg>
