<svg width="45" height="45" viewBox="0 0 45 45" fill="none" xmlns="http://www.w3.org/2000/svg">
<rect x="0.205322" y="0.5" width="43.9614" height="43.9596" rx="21.9798" fill="#FEF1F9"/>
<path d="M22.186 12.499C16.6826 12.499 12.2053 16.9763 12.2053 22.4797C12.2053 27.9831 16.6826 32.4604 22.186 32.4604C27.6894 32.4604 32.1667 27.9831 32.1667 22.4797C32.1667 16.9763 27.6894 12.499 22.186 12.499ZM22.186 21.6008C23.7004 21.6008 24.9324 22.8328 24.9324 24.3471C24.9324 25.5541 24.1494 26.581 23.0649 26.9484V28.3769H21.3071V26.9484C20.2226 26.581 19.4397 25.5541 19.4397 24.3471H21.1975C21.1975 24.8922 21.6409 25.3357 22.186 25.3357C22.7311 25.3357 23.1745 24.8922 23.1745 24.3471C23.1745 23.8021 22.7311 23.3586 22.186 23.3586C20.6716 23.3586 19.4397 22.1266 19.4397 20.6123C19.4397 19.4053 20.2226 18.3784 21.3071 18.011V16.5825H23.0649V18.011C24.1494 18.3784 24.9324 19.4053 24.9324 20.6123H23.1745C23.1745 20.0672 22.7311 19.6237 22.186 19.6237C21.6409 19.6237 21.1975 20.0672 21.1975 20.6123C21.1975 21.1574 21.6409 21.6008 22.186 21.6008Z" fill="#EC188B"/>
</svg>
