<svg width="45" height="44" viewBox="0 0 45 44" fill="none" xmlns="http://www.w3.org/2000/svg">
<rect x="0.37207" width="43.9614" height="43.9596" rx="21.9798" fill="#EFFAFF"/>
<g clip-path="url(#clip0_6180_15390)">
<path d="M30.3349 26.6107L27.5717 28.0311C27.433 27.6391 27.1883 27.2975 26.8674 27.0476L28.6427 26.135C29.246 25.8256 29.9719 26.0421 30.3349 26.6107ZM33.3527 27.4521C33.032 26.772 32.2283 26.4861 31.5752 26.8221L27.698 28.8125C27.6953 28.9826 27.6737 29.1551 27.6292 29.3267C27.3377 30.4629 26.2007 31.1468 25.1118 30.8426L21.2409 29.7612C21.0715 29.7134 20.9696 29.5301 21.0154 29.3534L21.0396 29.2615C21.0841 29.0848 21.2598 28.9784 21.4291 29.0262L25.3 30.109C25.9739 30.2965 26.6728 29.9018 26.897 29.224C27.1468 28.4693 26.7312 27.6415 25.9864 27.4329C23.6114 26.7687 21.2369 26.104 18.8618 25.4412C17.8506 25.1581 16.8803 25.3057 15.9891 25.8771L14.8993 26.5761L16.4248 31.8921L22.3994 33.5637C23.2947 33.8136 24.1415 33.7273 24.973 33.2993C27.5645 31.9695 30.157 30.6378 32.7481 29.3065C33.4026 28.9709 33.6748 28.1365 33.3527 27.4521ZM13.9492 25.9212C13.8944 25.73 13.7008 25.6198 13.5175 25.6765L11.465 26.3182C11.2817 26.3754 11.177 26.5789 11.2319 26.7701L13.221 33.6968C13.2758 33.8881 13.4708 33.9982 13.6527 33.9401L15.7052 33.2998C15.8885 33.2426 15.9931 33.0392 15.9383 32.8479L13.9492 25.9212ZM33.4879 24.4226V22.1918C32.8995 22.1918 32.3649 22.4417 31.9777 22.8457C31.5904 23.2498 31.351 23.8076 31.351 24.4231L33.4879 24.4226ZM33.4879 19.2139V16.9831H31.351C31.351 17.5981 31.5904 18.1564 31.9777 18.559C32.3645 18.964 32.8995 19.2139 33.4879 19.2139ZM23.367 17.4743C23.367 17.307 23.3554 17.1434 23.3338 16.9826H30.6228C30.6228 17.8076 30.9436 18.5557 31.462 19.0967C31.9804 19.6362 32.696 19.9709 33.4879 19.9709V21.4339C32.696 21.4339 31.9804 21.7671 31.462 22.3081C30.9436 22.849 30.6228 23.5971 30.6228 24.4221H22.8716C22.8716 23.5971 22.5508 22.849 22.0324 22.3081C21.514 21.7671 20.7971 21.4339 20.0051 21.4339V20.9806C21.8617 20.9811 23.367 19.4117 23.367 17.4743ZM24.318 20.7021C24.318 22.0986 25.4092 23.2362 26.7465 23.2362C28.0847 23.2362 29.175 22.099 29.175 20.7021C29.175 19.3071 28.0852 18.1681 26.7465 18.1681C25.4096 18.1681 24.318 19.3067 24.318 20.7021ZM20.0051 22.1914V24.4221H22.142C22.142 23.8071 21.9039 23.2489 21.5167 22.8448C21.1295 22.4412 20.5949 22.1914 20.0051 22.1914ZM26.7465 21.0832C26.7923 21.0832 26.8332 21.102 26.8624 21.1339C26.893 21.1643 26.9123 21.2084 26.9123 21.2548C26.9123 21.3012 26.893 21.3453 26.8624 21.3757C26.8332 21.4076 26.7923 21.4264 26.7465 21.4264C26.711 21.4264 26.6791 21.4156 26.6522 21.3959C26.6236 21.3753 26.6018 21.346 26.5897 21.312C26.5224 21.1151 26.3148 21.0129 26.1261 21.0832C25.9375 21.1536 25.8395 21.3701 25.9069 21.567C25.9694 21.7503 26.0853 21.9073 26.2331 22.0161C26.2802 22.0507 26.3296 22.0798 26.3822 22.1051V22.1623C26.3822 22.3723 26.5453 22.5425 26.7465 22.5425C26.9478 22.5425 27.1108 22.3723 27.1108 22.1623V22.1051C27.2105 22.0591 27.3011 21.9943 27.3781 21.9139C27.5398 21.7451 27.6405 21.5112 27.6405 21.2548C27.6405 20.9984 27.5398 20.7645 27.3781 20.5957C27.2164 20.427 26.9936 20.322 26.7465 20.322C26.702 20.322 26.6612 20.3032 26.6306 20.2714C26.6014 20.2395 26.5821 20.1968 26.5821 20.1504C26.5821 20.104 26.6014 20.06 26.6306 20.0295C26.6612 19.9976 26.702 19.9775 26.7465 19.9775C26.782 19.9775 26.8153 19.9892 26.8422 20.0093C26.8701 20.0304 26.8921 20.06 26.9033 20.0932C26.972 20.2901 27.1796 20.3923 27.3682 20.322C27.5569 20.2517 27.6548 20.0351 27.5875 19.8368C27.5249 19.6557 27.4106 19.499 27.26 19.3878C27.2142 19.3545 27.1643 19.324 27.1108 19.3001V19.2429C27.1108 19.0329 26.9478 18.8614 26.7465 18.8614C26.5453 18.8614 26.3822 19.0329 26.3822 19.2429V19.2987C26.2834 19.3461 26.1933 19.4113 26.1163 19.4914C25.9532 19.6601 25.8539 19.894 25.8539 20.1504C25.8539 20.4068 25.9532 20.6407 26.1163 20.8095C26.278 20.9782 26.5008 21.0832 26.7465 21.0832ZM17.3731 17.4743C17.3731 15.9607 18.5559 14.7279 20.0051 14.7279C21.4556 14.7279 22.6384 15.9612 22.6384 17.4743C22.6384 18.9875 21.4556 20.2207 20.0051 20.2207C18.5564 20.2212 17.3731 18.9879 17.3731 17.4743ZM19.0415 16.8471C19.0415 17.1246 19.1498 17.3759 19.3241 17.5592C19.4135 17.6526 19.5198 17.7268 19.6367 17.7774C19.7536 17.828 19.879 17.854 20.0055 17.854C20.0707 17.854 20.1291 17.8821 20.1722 17.9271C20.2153 17.9712 20.2423 18.0336 20.2423 18.1011C20.2423 18.1676 20.2153 18.23 20.1722 18.274C20.1291 18.319 20.0702 18.3471 20.0055 18.3471C19.9548 18.3471 19.909 18.3312 19.8708 18.3021C19.8298 18.2731 19.7987 18.2312 19.7818 18.1826C19.7144 17.9857 19.5069 17.8836 19.3182 17.9539C19.1296 18.0242 19.0316 18.2421 19.099 18.439C19.1664 18.6368 19.2913 18.8056 19.4517 18.9242C19.5101 18.9668 19.5738 19.0039 19.6412 19.0329V19.1314C19.6412 19.3414 19.8043 19.5115 20.0055 19.5115C20.2068 19.5115 20.3699 19.3414 20.3699 19.1314V19.0329C20.4894 18.9809 20.5976 18.9068 20.6884 18.8121C20.8627 18.6303 20.9709 18.3776 20.9709 18.1001C20.9709 17.8236 20.8627 17.5714 20.6884 17.389C20.5127 17.2071 20.2719 17.0942 20.006 17.0942C19.9422 17.0942 19.8825 17.0661 19.8402 17.0211C19.7971 16.9761 19.7702 16.9146 19.7702 16.8471C19.7702 16.7806 19.7971 16.7182 19.8402 16.6742C19.8825 16.6292 19.9422 16.6011 20.006 16.6011C20.0568 16.6011 20.1039 16.617 20.1421 16.6451C20.183 16.6756 20.2135 16.7168 20.2302 16.7646C20.2975 16.9615 20.5051 17.0651 20.6951 16.9934C20.8838 16.9231 20.9817 16.7065 20.9143 16.5096C20.8464 16.3141 20.7229 16.1449 20.5603 16.0245C20.5019 15.9818 20.4381 15.9448 20.3708 15.9157V15.8173C20.3708 15.6073 20.2077 15.4371 20.0064 15.4371C19.8052 15.4371 19.6421 15.6073 19.6421 15.8173V15.9157C19.5232 15.9663 19.4154 16.0414 19.325 16.1365C19.1498 16.3184 19.0415 16.5711 19.0415 16.8471ZM25.7726 14.0942C25.9739 14.0942 26.1369 13.924 26.1369 13.714V10.3831C26.1369 10.1731 25.9739 10.0029 25.7726 10.0029C25.57 10.0029 25.4069 10.1731 25.4069 10.3831V13.714C25.4069 13.924 25.57 14.0942 25.7726 14.0942ZM23.7704 15.3804C23.9717 15.3804 24.1361 15.2103 24.1361 15.0003V12.7095C24.1361 12.4995 23.9717 12.3293 23.7704 12.3293C23.5692 12.3293 23.4061 12.4995 23.4061 12.7095V15.0003C23.4066 15.2103 23.5696 15.3804 23.7704 15.3804ZM27.7218 14.0942C27.923 14.0942 28.0861 13.924 28.0861 13.714V10.3831C28.0861 10.1731 27.923 10.0029 27.7218 10.0029C27.5205 10.0029 27.3575 10.1731 27.3575 10.3831V13.714C27.3579 13.924 27.5205 14.0942 27.7218 14.0942ZM29.7226 15.3804C29.9238 15.3804 30.0869 15.2103 30.0869 15.0003V12.7095C30.0869 12.4995 29.9238 12.3293 29.7226 12.3293C29.5213 12.3293 29.3583 12.4995 29.3583 12.7095V15.0003C29.3583 15.2103 29.5213 15.3804 29.7226 15.3804Z" fill="#2DC8FF"/>
</g>
<defs>
<clipPath id="clip0_6180_15390">
<rect width="23" height="24" fill="white" transform="translate(10.8528 9.97949)"/>
</clipPath>
</defs>
</svg>
