<svg width="44" height="45" viewBox="0 0 44 45" fill="none" xmlns="http://www.w3.org/2000/svg">
<rect x="0.0388184" y="0.959961" width="43.9614" height="43.9596" rx="21.9798" fill="#E6F3E9"/>
<path d="M22.0195 12.959C16.5161 12.959 12.0388 17.4363 12.0388 22.9397C12.0388 28.443 16.5161 32.9204 22.0195 32.9204C27.5229 32.9204 32.0002 28.443 32.0002 22.9397C32.0002 17.4363 27.5229 12.959 22.0195 12.959ZM22.0195 22.0608C23.5339 22.0608 24.7658 23.2928 24.7658 24.8071C24.7658 26.0141 23.9829 27.0409 22.8984 27.4084V28.8368H21.1406V27.4084C20.0561 27.0409 19.2732 26.0141 19.2732 24.8071H21.031C21.031 25.3522 21.4744 25.7956 22.0195 25.7956C22.5646 25.7956 23.008 25.3522 23.008 24.8071C23.008 24.262 22.5646 23.8186 22.0195 23.8186C20.5051 23.8186 19.2732 22.5866 19.2732 21.0722C19.2732 19.8653 20.0561 18.8384 21.1406 18.471V17.0425H22.8984V18.471C23.9829 18.8384 24.7658 19.8653 24.7658 21.0722H23.008C23.008 20.5271 22.5646 20.0837 22.0195 20.0837C21.4744 20.0837 21.031 20.5271 21.031 21.0722C21.031 21.6173 21.4744 22.0608 22.0195 22.0608Z" fill="#1A9636"/>
</svg>
