<svg width="58" height="58" viewBox="0 0 58 58" fill="none" xmlns="http://www.w3.org/2000/svg">
<path d="M29.1667 0.106445L4.9397 16.879H53.3937L29.1667 0.106445Z" fill="#FF7B4A"/>
<path d="M4.9397 22.9492H53.3938V57.8921H4.9397V22.9492Z" fill="#B7CEFF"/>
<path d="M40.3484 41.1191V46.7099L37.553 44.8463L34.7575 46.7099V41.1191H40.3484ZM23.5757 41.1191V46.7099L20.7803 44.8463L17.9849 46.7099V41.1191H23.5757Z" fill="#FF7B4A"/>
<path d="M45.9393 41.1191V57.8917H29.1667V41.1191H34.7576V46.7099L37.5531 44.8463L40.3485 46.7099V41.1191H45.9393Z" fill="#FDC44F"/>
<path d="M29.1668 41.1191V57.8917H12.3943V41.1191H17.9851V46.7099L20.7805 44.8463L23.5759 46.7099V41.1191H29.1668Z" fill="#FDE57F"/>
<path d="M29.1668 7.57422C30.7101 7.57422 31.9622 8.82632 31.9622 10.3697C31.9622 11.913 30.7101 13.1651 29.1668 13.1651C27.6234 13.1651 26.3713 11.913 26.3713 10.3697C26.3713 8.82632 27.6234 7.57422 29.1668 7.57422Z" fill="#8080D5"/>
<path d="M4.9397 16.8926H53.3938V22.9494H4.9397V16.8926Z" fill="#709CFE"/>
</svg>
