<svg width="65" height="64" viewBox="0 0 65 64" fill="none" xmlns="http://www.w3.org/2000/svg">
<path fill-rule="evenodd" clip-rule="evenodd" d="M62.3146 52.2367H42.6581C43.1355 51.3673 43.6844 50.3618 43.8196 50.1126C48.3228 41.8032 48.2679 36.5331 47.8262 34.1114L47.8237 34.098L47.8211 34.0842L47.8186 34.0704L47.8157 34.0562L47.8128 34.042L47.8098 34.0275L47.8069 34.013L47.8037 33.9981L47.8004 33.9832L47.7971 33.9683L47.7939 33.953V33.9527L47.7906 33.9374V33.937L47.787 33.9214V33.9211L47.7833 33.9054V33.9051L47.7797 33.8895V33.8891L47.7761 33.8731V33.8727L47.7724 33.8568V33.8564L47.7684 33.8404V33.84L47.7644 33.8241V33.8237L47.7604 33.8074V33.8066L47.7564 33.7903V33.7899L47.7524 33.7732V33.7725L47.7481 33.7558V33.755L47.7437 33.7383V33.7376L47.7394 33.7209L47.7303 33.6853V33.6846L47.7256 33.6671V33.6664L47.7208 33.649V33.6482L47.7063 33.5941V33.5934L47.7016 33.5756V33.5749L47.6969 33.5571V33.5563L47.6918 33.5385V33.5378L47.6867 33.5196V33.5185L47.6816 33.5004V33.4993L47.6765 33.4811L47.6762 33.48L47.6711 33.4619V33.4608L47.6551 33.4034L47.6547 33.4023L47.6493 33.3838L47.6489 33.3827L47.638 33.3442L47.6377 33.3427L47.6322 33.3242L47.6318 33.3227L47.6144 33.2635L47.614 33.2621L47.6086 33.2432L47.6082 33.2417L47.6024 33.2228L47.6021 33.2214L47.5962 33.2025L47.5959 33.201L47.5901 33.1818L47.5897 33.1803L47.5839 33.1611L47.5835 33.1596L47.5777 33.1404L47.5773 33.1389L47.5654 33.099L47.565 33.0971L47.5592 33.0779L47.5588 33.0764L47.5465 33.0361L47.5461 33.0343L47.5399 33.0147L47.5396 33.0129L47.5334 32.9932L47.533 32.9914L47.5269 32.9718L47.5265 32.97L47.5203 32.9504L47.52 32.9486C47.3637 32.4403 47.1748 31.8783 47.0121 31.4093C47.0691 31.4031 47.1276 31.4039 47.1868 31.4126C60.6675 33.5778 61.2938 38.4388 62.8073 50.183L62.9754 51.4843C63.0005 51.674 62.9417 51.865 62.816 52.0089C62.7535 52.0799 62.6766 52.1368 62.5904 52.1758C62.5042 52.2147 62.4107 52.2349 62.3161 52.2349L62.3146 52.2367ZM35.1059 52.2367H15.4494C15.2583 52.2367 15.0763 52.1542 14.9498 52.0107C14.8874 51.9397 14.8408 51.8562 14.8133 51.7657C14.7857 51.6752 14.7778 51.5799 14.79 51.4861L14.9582 50.1849C16.4716 38.441 17.0979 33.5796 30.5783 31.4144C30.6382 31.4053 30.6971 31.4042 30.7545 31.4104L30.7534 31.4111C30.591 31.8801 30.4021 32.4418 30.2462 32.9504L30.2455 32.9525C30.106 33.4074 29.9908 33.8244 29.9385 34.1114C29.4968 36.5331 29.4419 41.8036 33.9452 50.1126C34.0803 50.3618 34.6292 51.3673 35.1066 52.2367H35.1059ZM41.9541 32.0887L38.8818 36.549L38.868 36.5291L38.8854 36.5436L41.9541 32.0887ZM38.3017 38.9998L36.891 40.074L36.688 40.2287L35.8306 40.8816L33.8998 42.3518L36.688 40.2287L38.302 38.9998H38.3017Z" fill="#1A3B55"/>
<path fill-rule="evenodd" clip-rule="evenodd" d="M35.1059 52.2367H27.186L23.3148 42.6533C23.2682 42.5372 23.2552 42.4104 23.2774 42.2873C23.2997 42.1642 23.3562 42.0499 23.4405 41.9576L25.6002 39.5883L21.9492 38.8995C21.8435 38.8796 21.7441 38.8343 21.6597 38.7676C21.5753 38.7008 21.5083 38.6145 21.4646 38.5162C21.421 38.4178 21.4019 38.3104 21.4089 38.2031C21.4158 38.0957 21.4487 37.9916 21.5046 37.8997L23.8979 33.9705L24.6444 32.8094C26.2825 32.2485 28.2358 31.7908 30.5779 31.4144C30.6375 31.4049 30.6964 31.4039 30.7534 31.4104C30.445 32.2997 30.049 33.5015 29.9378 34.1114C29.4961 36.533 29.4412 41.8036 33.9445 50.1126C34.0796 50.3618 34.6285 51.3673 35.1059 52.2367Z" fill="#31597A"/>
<path fill-rule="evenodd" clip-rule="evenodd" d="M33.7857 29.8626C33.7821 29.8121 33.7803 29.7711 33.7803 29.742V26.8877C35.4684 28.2936 36.6615 29.1411 39.0253 29.1411C41.2574 29.1411 42.3399 28.3855 43.9838 27.1169V29.8644C43.8908 29.8365 43.8181 29.8237 43.7713 29.8303C43.5856 29.8568 43.4189 29.96 43.3132 30.1158L38.888 36.5398L38.8815 36.5492L38.8677 36.5292L34.4502 30.1155C34.3979 30.0386 34.3301 29.9735 34.2513 29.9243C34.1724 29.8752 34.0841 29.843 33.9921 29.8299C33.9463 29.8234 33.8755 29.8357 33.7854 29.8626H33.7857Z" fill="#E6B88A"/>
<path fill-rule="evenodd" clip-rule="evenodd" d="M33.4965 42.4871H33.4635L33.4606 42.4867H33.4537L33.4508 42.4864H33.4471L33.4442 42.486H33.4439L33.441 42.4856H33.4406L33.4377 42.4853H33.4373L33.4344 42.4849H33.4341L33.4311 42.4845H33.4308L33.4279 42.4842H33.4275L33.4246 42.4838H33.4242L33.4213 42.4835H33.421L33.4181 42.4831H33.4177L33.4148 42.4827H33.4144L33.4083 42.482H33.4079L33.4017 42.4809H33.4014L33.3985 42.4806H33.3981L33.3919 42.4795H33.3916L33.3886 42.4787H33.3883L33.3723 42.4758H33.3719L33.369 42.4751H33.3687L33.3592 42.4729L33.3559 42.4722L33.353 42.4715H33.3527L33.3498 42.4707H33.3494L33.34 42.4686H33.3396L33.3302 42.466L33.3203 42.4635L33.3109 42.4609L33.3076 42.4602L33.2884 42.4544C33.0802 42.3857 32.9077 42.2252 32.847 42.0145L30.5332 33.9463L30.2651 33.0167L30.2462 32.9549L30.2455 32.9524C30.106 33.4072 29.9909 33.8243 29.9385 34.1112C29.4968 36.5329 29.4419 41.8034 33.9452 50.1124C34.0803 50.3616 34.6293 51.3672 35.1066 52.2365H42.6589C43.1362 51.3672 43.6852 50.3616 43.8203 50.1124C48.3236 41.803 48.2687 36.5329 47.827 34.1112C47.7746 33.8239 47.6591 33.4054 47.5193 32.9502L44.9069 42.0072C44.8769 42.1111 44.822 42.2061 44.747 42.284C44.672 42.3618 44.5791 42.4202 44.4764 42.454C44.4085 42.4769 44.338 42.4875 44.2679 42.4875C44.124 42.4875 43.982 42.441 43.865 42.3516L41.9327 40.8799L40.8715 40.0724L38.8829 38.5578L38.3024 38.9999L36.8918 40.0742L36.6887 40.2289L35.8314 40.8817L33.9005 42.352L33.8998 42.3523L33.8947 42.3563L33.894 42.3567L33.8834 42.3647L33.8827 42.365C33.8718 42.373 33.8605 42.3807 33.8489 42.3876H33.8486L33.8257 42.4014H33.8253L33.814 42.4079H33.8137L33.7959 42.4173H33.7955L33.7835 42.4232H33.7832L33.7774 42.4261H33.777L33.7712 42.429H33.7708L33.765 42.4315H33.7646L33.7585 42.4341H33.7581L33.7523 42.4366H33.7519L33.7458 42.4391H33.7454L33.7392 42.4417H33.7388L33.7327 42.4442L33.7265 42.4468H33.7261L33.72 42.4489L33.7138 42.4511L33.7076 42.4533L33.7014 42.4555L33.6949 42.4577L33.6884 42.4598L33.6818 42.4617L33.6753 42.4635L33.6687 42.4653L33.6622 42.4671L33.6557 42.4689L33.6491 42.4704L33.6426 42.4718L33.636 42.4733L33.6295 42.4747L33.623 42.4762L33.6164 42.4776L33.6099 42.4787L33.6033 42.4798H33.603L33.5964 42.4809L33.5899 42.482H33.5895L33.583 42.4827L33.5765 42.4835H33.5761L33.5696 42.4842H33.5692L33.5627 42.4849L33.5561 42.4856H33.5558L33.5492 42.4864H33.5489L33.5423 42.4867H33.542L33.5354 42.4871H33.535L33.5285 42.4875H33.5281L33.5216 42.4878H33.5212L33.5147 42.4882H33.494L33.4965 42.4871Z" fill="#D8D8D8"/>
<path fill-rule="evenodd" clip-rule="evenodd" d="M35.2358 52.2362H42.4837L41.2649 41.3112C41.2358 41.0496 41.0542 40.8294 40.8024 40.751C40.5518 40.6725 40.2768 40.7495 40.1035 40.9479L38.881 42.3454L37.6571 40.9479C37.4835 40.7495 37.2092 40.6729 36.9578 40.751C36.8349 40.7897 36.7258 40.8632 36.6437 40.9626C36.5617 41.062 36.5103 41.1831 36.4957 41.3112L35.2358 52.2362Z" fill="#DB352C"/>
<path fill-rule="evenodd" clip-rule="evenodd" d="M38.8818 44.0207C38.69 44.0207 38.5076 43.9378 38.3815 43.794L35.8306 40.8812L38.8821 38.5576L41.9319 40.8801L39.382 43.7943C39.2563 43.9389 39.0736 44.021 38.8818 44.021V44.0207Z" fill="#C53028"/>
<path fill-rule="evenodd" clip-rule="evenodd" d="M44.2673 42.4867C44.1234 42.4867 43.9814 42.4402 43.8644 42.3508L38.4791 38.2501C38.1979 38.0361 38.1333 37.6398 38.3316 37.3473L38.89 36.5368L43.3137 30.1144C43.4194 29.9589 43.5858 29.8553 43.7718 29.8288C44.1747 29.7729 46.5066 31.1443 47.0112 31.4098C47.1739 31.8792 47.3632 32.4419 47.5194 32.9509L47.5187 32.9534L47.4998 33.0152L47.2317 33.9448L44.9179 42.0129C44.8573 42.2237 44.6847 42.3839 44.4765 42.4529C44.4086 42.4758 44.3381 42.4863 44.268 42.4863L44.2673 42.4867Z" fill="#C4C4C4"/>
<path fill-rule="evenodd" clip-rule="evenodd" d="M50.5779 52.2368H42.658C43.1353 51.3675 43.6842 50.3619 43.8194 50.1127C48.3226 41.8033 48.2678 36.5332 47.826 34.1116C47.7149 33.5016 47.3192 32.3006 47.0108 31.4113C47.0678 31.4051 47.1263 31.4058 47.1856 31.4145C49.528 31.7905 51.4817 32.2486 53.1198 32.8099L53.866 33.9706L56.2593 37.8999C56.3152 37.9918 56.348 38.0959 56.3549 38.2032C56.3618 38.3106 56.3426 38.4181 56.2989 38.5164C56.2099 38.7162 56.0289 38.8593 55.8142 38.8996L52.1633 39.5884L54.3226 41.9577C54.4948 42.1466 54.5435 42.4166 54.4483 42.6534L50.5772 52.2368H50.5779Z" fill="#31597A"/>
<path fill-rule="evenodd" clip-rule="evenodd" d="M33.4961 42.4873C33.6396 42.4873 33.7824 42.4411 33.8997 42.3518L39.285 38.251C39.5662 38.0371 39.6305 37.6404 39.4325 37.3483L34.4505 30.1153C34.3982 30.0385 34.3304 29.9734 34.2516 29.9242C34.1727 29.875 34.0844 29.8429 33.9924 29.8298C33.5895 29.7738 31.2576 31.1452 30.753 31.4108C30.5902 31.8802 30.401 32.4429 30.2451 32.9518L30.2458 32.9544L30.2647 33.0161L30.5328 33.9458L32.8466 42.0139C32.9073 42.2246 33.0798 42.3848 33.288 42.4539C33.3559 42.4767 33.4264 42.4873 33.4965 42.4873H33.4961Z" fill="#C4C4C4"/>
<path fill-rule="evenodd" clip-rule="evenodd" d="M29.8513 19.4916C29.5341 19.4916 29.2424 19.3085 29.1051 19.0194C26.633 13.7888 26.6577 9.60344 29.1788 6.57875C31.0385 4.34783 33.6737 3.09705 37.2343 2.75484C37.9227 2.68908 38.4727 2.6582 38.9653 2.6582C40.4958 2.6582 41.6899 2.94847 43.5267 3.76694C44.2122 4.07246 44.6209 4.73 44.8665 5.23824C45.0427 5.16231 45.265 5.09401 45.5353 5.09401C46.0057 5.09401 46.4744 5.30399 46.9677 5.73666C50.5965 8.91684 49.8344 14.8779 47.2743 18.873C47.0879 19.1636 46.7399 19.3082 46.4017 19.2333C46.0639 19.1589 45.8088 18.8813 45.7623 18.5384C45.7031 18.0977 45.6897 17.5219 45.674 16.8538C45.6533 15.9551 45.6058 13.8858 45.2428 13.4586C45.2094 13.4684 45.1524 13.4891 45.0703 13.5338C43.2648 14.5248 41.8283 14.632 41.295 14.632C41.1908 14.632 41.117 14.628 41.0753 14.6251C39.7765 14.596 38.5955 13.985 37.5518 13.4459C36.6508 12.9798 35.8 12.5399 35.0444 12.5399C34.49 12.5399 32.8037 12.5399 30.632 18.9318C30.579 19.0874 30.4809 19.2236 30.3501 19.3231C30.2193 19.4225 30.0618 19.4807 29.8978 19.4902C29.8825 19.4913 29.8662 19.492 29.8513 19.492V19.4916Z" fill="#883F2E"/>
<path fill-rule="evenodd" clip-rule="evenodd" d="M38.216 29.9028C33.1489 29.9028 29.0264 25.7802 29.0264 20.7135V18.6664C29.0264 18.576 29.0409 18.487 29.07 18.4009C30.8588 13.1358 32.6454 10.8896 35.0449 10.8896C36.2019 10.8896 37.2736 11.4437 38.3104 11.9799C39.2862 12.4841 40.2082 12.9611 41.1302 12.9753C41.1527 12.9753 41.1753 12.9767 41.1982 12.9793C41.229 12.9803 42.4922 13.0668 44.2773 12.087C44.6246 11.8963 44.9629 11.8004 45.2833 11.8004C47.2094 11.8004 47.2733 14.5813 47.3242 16.8152C47.338 17.408 47.3507 17.9671 47.3979 18.3162C47.4027 18.3529 47.4052 18.39 47.4052 18.4267V20.7132C47.4052 25.7806 43.2838 29.9028 38.216 29.9028Z" fill="#FFCC99"/>
<path fill-rule="evenodd" clip-rule="evenodd" d="M9.85691 61.3423C9.46892 61.3423 9.1525 61.0295 9.14851 60.6408L9.12126 57.8722C8.924 57.8021 8.72964 57.7232 8.53928 57.6371L6.60081 59.6145C6.46894 59.7485 6.28984 59.8255 6.10166 59.827C5.92038 59.8354 5.73256 59.7558 5.59851 59.6247L2.86009 56.94C2.72603 56.8081 2.64974 56.629 2.64793 56.4408C2.64611 56.2527 2.71877 56.0717 2.85028 55.9381L4.78948 53.9607C4.69939 53.7718 4.61728 53.5793 4.54317 53.3835L1.77423 53.4103H1.76697C1.37898 53.4103 1.06256 53.0976 1.05857 52.7088L1.02079 48.8744C1.01897 48.6866 1.09163 48.5057 1.22313 48.3716C1.35464 48.2376 1.5341 48.1609 1.72228 48.1591L4.49086 48.1315C4.56136 47.9342 4.63977 47.7398 4.72591 47.5488L2.74856 45.6099C2.46919 45.336 2.46483 44.8874 2.73911 44.6084L5.42341 41.8703C5.69732 41.5906 6.14598 41.5855 6.42498 41.8605L8.40269 43.799C8.5916 43.7092 8.78414 43.6268 8.97995 43.553L8.95234 40.7841C8.94834 40.3925 9.26258 40.0721 9.65383 40.0688L13.4879 40.0303C13.6754 40.0335 13.857 40.1015 13.9907 40.2326C14.1248 40.3645 14.2018 40.5436 14.2032 40.7318L14.2308 43.5007C14.4277 43.5708 14.6221 43.6489 14.8132 43.7358L16.752 41.7584C16.8839 41.6244 17.063 41.5477 17.2512 41.5459C17.4477 41.5517 17.6203 41.6167 17.7539 41.7482L20.4924 44.4329C20.6264 44.5648 20.7034 44.7439 20.7049 44.932C20.7071 45.1199 20.6341 45.3011 20.5025 45.4348L18.5641 47.4122C18.6542 47.6011 18.7363 47.7936 18.81 47.9894L21.579 47.9625H21.5862C21.9746 47.9625 22.291 48.2753 22.2946 48.6641L22.3331 52.4989C22.3353 52.6867 22.2623 52.8676 22.1308 53.0016C21.9989 53.1357 21.8198 53.2123 21.6316 53.2142L18.8627 53.2418C18.7925 53.439 18.7141 53.6331 18.6276 53.8238L20.6054 55.7622C20.7394 55.8941 20.8164 56.0736 20.8182 56.2617C20.82 56.4496 20.7471 56.6304 20.6155 56.7645L17.9309 59.503C17.6573 59.7827 17.2083 59.7863 16.9293 59.5131L14.9516 57.5743C14.7627 57.6644 14.5698 57.7465 14.3743 57.8206L14.4012 60.5895C14.4034 60.7773 14.33 60.9586 14.1989 61.0923C14.067 61.2264 13.8879 61.3034 13.6997 61.3048L9.86526 61.3426H9.85655L9.85691 61.3423Z" fill="#225362"/>
<path fill-rule="evenodd" clip-rule="evenodd" d="M11.6739 55.4367C9.06994 55.4367 6.92984 53.326 6.90405 50.7326C6.87789 48.1133 8.99728 45.9605 11.6282 45.934L11.6758 45.9336C14.2809 45.9336 16.4206 48.0443 16.4468 50.6377C16.4595 51.9078 15.9745 53.1062 15.0819 54.0123C14.1897 54.9179 12.997 55.424 11.723 55.4363C11.7204 55.4363 11.6769 55.4371 11.6747 55.4371L11.6739 55.4367Z" fill="#4F8496"/>
<path fill-rule="evenodd" clip-rule="evenodd" d="M11.6744 53.6601C10.0444 53.6601 8.70461 52.3388 8.68863 50.7153C8.67228 49.0758 9.99899 47.728 11.6457 47.7113L11.6755 47.7109C13.3063 47.7109 14.6457 49.0322 14.6621 50.6557C14.6701 51.4509 14.3667 52.2011 13.8076 52.7682C13.2493 53.3353 12.5024 53.6521 11.705 53.6597L11.6748 53.6601H11.6744Z" fill="white"/>
</svg>
