<svg width="64" height="64" viewBox="0 0 64 64" fill="none" xmlns="http://www.w3.org/2000/svg">
<g clip-path="url(#clip0_6061_4945)">
<path d="M10.249 15.9453H54.7507V54.0353H10.249V15.9453Z" fill="#E9EAEB"/>
<path d="M49.1013 15.9453H54.7512V54.0353H49.1013V15.9453Z" fill="#B9BBC1"/>
<path d="M54.9064 15.9454H10.0938V9.6926C10.0938 9.45271 10.189 9.22264 10.3587 9.05301C10.5283 8.88338 10.7584 8.78809 10.9983 8.78809H54.0019C54.2417 8.78809 54.4718 8.88338 54.6414 9.05301C54.8111 9.22264 54.9064 9.45271 54.9064 9.6926V15.9454Z" fill="#FDC74F"/>
<path d="M54.0018 8.78809H49.2563V13.4952H54.9063V9.6926C54.9063 9.45271 54.811 9.22264 54.6413 9.05301C54.4717 8.88338 54.2416 8.78809 54.0018 8.78809Z" fill="#FCA629"/>
<path d="M10.2491 27.2844C8.20097 27.2844 6.54053 25.6241 6.54053 23.576V20.5547H13.9575V23.576C13.9576 25.6241 12.2972 27.2844 10.2491 27.2844Z" fill="#E60D28"/>
<path d="M17.6661 27.2844C15.618 27.2844 13.9575 25.6241 13.9575 23.576V20.5547H21.3745V23.576C21.3746 25.6241 19.7142 27.2844 17.6661 27.2844Z" fill="#F2F2F2"/>
<path d="M25.0831 27.2844C23.035 27.2844 21.3745 25.6241 21.3745 23.576V20.5547H28.7915V23.576C28.7916 25.6241 27.1312 27.2844 25.0831 27.2844Z" fill="#E60D28"/>
<path d="M32.5001 27.2844C30.4519 27.2844 28.7915 25.6241 28.7915 23.576V20.5547H36.2085V23.576C36.2085 25.6241 34.5482 27.2844 32.5001 27.2844Z" fill="#F2F2F2"/>
<path d="M39.917 27.2844C37.8689 27.2844 36.2085 25.6241 36.2085 23.576V20.5547H43.6255V23.576C43.6256 25.6241 41.9652 27.2844 39.917 27.2844Z" fill="#E60D28"/>
<path d="M47.334 27.2844C45.2859 27.2844 43.6255 25.6241 43.6255 23.576V20.5547H51.0425V23.576C51.0426 25.6241 49.3822 27.2844 47.334 27.2844Z" fill="#F2F2F2"/>
<path d="M54.751 27.2844C52.7029 27.2844 51.0425 25.6241 51.0425 23.576V20.5547H58.4595V23.576C58.4596 25.6241 56.7991 27.2844 54.751 27.2844Z" fill="#E60D28"/>
<path d="M13.9575 20.5541H6.54053L10.09 13.4951H16.4929L13.9575 20.5541Z" fill="#FC502A"/>
<path d="M21.3745 20.5541H13.9575L16.4929 13.4951H22.8957L21.3745 20.5541Z" fill="white"/>
<path d="M28.7915 20.5541H21.3745L22.8957 13.4951H29.2986L28.7915 20.5541Z" fill="#FC502A"/>
<path d="M36.2085 20.5541H28.7915L29.2986 13.4951H35.7015L36.2085 20.5541Z" fill="white"/>
<path d="M43.6254 20.5541H36.2084L35.7014 13.4951H42.1043L43.6254 20.5541Z" fill="#FC502A"/>
<path d="M51.0424 20.5541H43.6253L42.1042 13.4951H48.5071L51.0424 20.5541Z" fill="white"/>
<path d="M58.4594 20.5541H51.0424L48.5071 13.4951H54.91L58.4594 20.5541Z" fill="#FC502A"/>
<path d="M56.8062 50.5557H8.19376C7.25837 50.5557 6.5 51.3139 6.5 52.2494V54.7315C6.5 54.8588 6.55058 54.9809 6.64061 55.071C6.73065 55.161 6.85276 55.2116 6.98009 55.2116H58.0198C58.1471 55.2116 58.2693 55.161 58.3593 55.071C58.4493 54.9809 58.4999 54.8588 58.4999 54.7315V52.2494C58.5 51.3139 57.7416 50.5557 56.8062 50.5557Z" fill="#8B8996"/>
<path d="M56.8063 50.5557H52.8328V55.2116H58.02C58.1473 55.2116 58.2694 55.161 58.3594 55.071C58.4495 54.9809 58.5001 54.8588 58.5001 54.7315V52.2494C58.5001 51.3139 57.7417 50.5557 56.8063 50.5557Z" fill="#706F7F"/>
<path d="M50.3677 45.5774H27.525C27.346 45.5774 27.1743 45.5063 27.0478 45.3798C26.9212 45.2532 26.8501 45.0816 26.8501 44.9026V32.3331C26.8501 32.1541 26.9212 31.9824 27.0478 31.8559C27.1743 31.7293 27.346 31.6582 27.525 31.6582H50.3677C50.5467 31.6582 50.7184 31.7293 50.8449 31.8559C50.9715 31.9824 51.0426 32.1541 51.0426 32.3331V44.9027C51.0426 45.0816 50.9715 45.2533 50.8449 45.3798C50.7183 45.5064 50.5467 45.5774 50.3677 45.5774Z" fill="#00C6C8"/>
<path d="M50.3678 31.6582H45.3752V45.5774H50.3678C50.5467 45.5774 50.7184 45.5063 50.845 45.3798C50.9715 45.2532 51.0426 45.0816 51.0426 44.9026V32.3331C51.0426 32.1541 50.9715 31.9824 50.845 31.8559C50.7184 31.7293 50.5467 31.6582 50.3678 31.6582Z" fill="#0FB0C0"/>
<path d="M23.6419 50.5555H13.22V32.3331C13.22 32.1541 13.2911 31.9824 13.4176 31.8559C13.5442 31.7293 13.7159 31.6582 13.8949 31.6582H22.967C23.0557 31.6582 23.1434 31.6757 23.2253 31.7096C23.3072 31.7435 23.3816 31.7932 23.4442 31.8559C23.5069 31.9185 23.5566 31.9929 23.5905 32.0748C23.6245 32.1567 23.6419 32.2445 23.6419 32.3331V50.5555Z" fill="#00C6C8"/>
<path d="M22.9669 31.6582H17.9744V50.5555H23.6417V32.3331C23.6417 32.2445 23.6242 32.1567 23.5903 32.0748C23.5564 31.9929 23.5067 31.9185 23.4441 31.8558C23.3814 31.7932 23.307 31.7435 23.2251 31.7096C23.1433 31.6756 23.0555 31.6582 22.9669 31.6582Z" fill="#0FB0C0"/>
<path d="M20.7295 42.3324C20.9376 42.3324 21.1372 42.2497 21.2843 42.1025C21.4315 41.9554 21.5142 41.7558 21.5142 41.5477V40.1353C21.5142 39.9271 21.4315 39.7276 21.2843 39.5804C21.1372 39.4333 20.9376 39.3506 20.7295 39.3506C20.5214 39.3506 20.3218 39.4333 20.1746 39.5804C20.0275 39.7276 19.9448 39.9271 19.9448 40.1353V41.5477C19.9448 41.6507 19.9651 41.7528 20.0045 41.848C20.044 41.9432 20.1018 42.0297 20.1746 42.1026C20.2475 42.1754 20.334 42.2332 20.4292 42.2727C20.5244 42.3121 20.6264 42.3324 20.7295 42.3324Z" fill="white"/>
</g>
<defs>
<clipPath id="clip0_6061_4945">
<rect width="52" height="52" fill="white" transform="translate(6.5 6)"/>
</clipPath>
</defs>
</svg>
