<svg width="27" height="27" viewBox="0 0 27 27" fill="none" xmlns="http://www.w3.org/2000/svg">
<path d="M10.2969 18.9688V20.0625C10.2969 20.9327 10.6343 21.7673 11.235 22.3827C11.8358 22.998 12.6505 23.3437 13.5 23.3438C14.3495 23.3437 15.1642 22.998 15.765 22.3827C16.3657 21.7673 16.7031 20.9327 16.7031 20.0625V18.9688M23.1094 7.73266C22.409 6.17215 21.392 4.78248 20.1262 3.65625M3.89062 7.73266C4.59035 6.17236 5.60659 4.7827 6.87167 3.65625M11.3646 5.84375C11.3646 5.26359 11.5896 4.70719 11.99 4.29695C12.3905 3.88672 12.9337 3.65625 13.5 3.65625C14.0663 3.65625 14.6095 3.88672 15.01 4.29695C15.4104 4.70719 15.6354 5.26359 15.6354 5.84375C16.8616 6.43769 17.9069 7.36223 18.6592 8.5183C19.4116 9.67436 19.8427 11.0184 19.9063 12.4062V15.6875C19.9866 16.3675 20.2217 17.0187 20.5926 17.5886C20.9635 18.1585 21.4598 18.6312 22.0417 18.9688H4.95833C5.54017 18.6312 6.03652 18.1585 6.40741 17.5886C6.77831 17.0187 7.0134 16.3675 7.09375 15.6875V12.4062C7.15734 11.0184 7.58842 9.67436 8.34078 8.5183C9.09314 7.36223 10.1384 6.43769 11.3646 5.84375Z" stroke="#01ABEC" stroke-width="1.5" stroke-linecap="round" stroke-linejoin="round"/>
</svg>
