<svg width="100" height="101" viewBox="0 0 100 101" fill="none" xmlns="http://www.w3.org/2000/svg">
<path d="M84.375 52.6094V23.9375C84.375 23.8281 84.3594 23.7188 84.3438 23.625C84.3281 23.5312 84.2969 23.4375 84.25 23.3437C84.1722 23.1499 84.0559 22.9738 83.9082 22.8261C83.7606 22.6784 83.5845 22.5622 83.3906 22.4844L70.0469 17.1562C69.9612 17.1132 69.8724 17.0766 69.7812 17.0469L58.6875 12.6094C58.6875 12.6094 58.5469 12.5625 58.4687 12.5312L44.3281 6.85938C43.9531 6.71875 43.5469 6.71875 43.1719 6.85938L4.10938 22.4844C3.71875 22.6406 3.40625 22.9531 3.25 23.3437C3.20313 23.4375 3.17188 23.5312 3.15625 23.625C3.14063 23.7188 3.125 23.8281 3.125 23.9375V67.6875C3.1247 68.0004 3.21837 68.3063 3.39388 68.5653C3.56939 68.8244 3.81865 69.0248 4.10938 69.1406L43.1406 84.75C43.3281 84.8281 43.5312 84.875 43.75 84.875C43.9688 84.875 44.1719 84.8281 44.3594 84.75L54.7344 80.5938C57.9844 88.5938 65.8438 94.25 75 94.25C87.0625 94.25 96.875 84.4375 96.875 72.375C96.875 63.6563 91.75 56.125 84.375 52.6094ZM8.89063 23.9375L43.75 10L53.9531 14.0781L20.2969 28.5L8.89063 23.9375ZM31.0312 33.2812L30.9688 33.3125L30.6563 33.4375C30.0625 33.6719 29.6875 34.25 29.6875 34.875V46.5625L21.875 43.2188V31.2187L58.0625 15.7188L65.2656 18.5938L31.1875 33.2188L31.0312 33.2812ZM43.75 37.875L35.7031 34.6719L69.3594 20.2344L78.6094 23.9375L43.75 37.875ZM75 91.125C66.7031 91.125 59.6562 85.7188 57.1875 78.25C57.1875 78.1562 57.1406 78.0625 57.1094 77.9688C57.1094 77.9688 57.0937 77.9375 57.0781 77.9219C56.5469 76.1562 56.25 74.2969 56.25 72.375C56.25 62.0313 64.6562 53.625 75 53.625C77.5312 53.625 79.9688 54.125 82.1719 55.0469C82.2188 55.0625 82.25 55.0781 82.2969 55.0937C89.0156 57.9531 93.75 64.625 93.75 72.375C93.75 82.7188 85.3438 91.125 75 91.125Z" fill="#01ABEC"/>
<path d="M83.9219 63.453C83.7773 63.3082 83.6056 63.1933 83.4166 63.1149C83.2276 63.0365 83.0249 62.9961 82.8203 62.9961C82.6157 62.9961 82.413 63.0365 82.224 63.1149C82.035 63.1933 81.8633 63.3082 81.7187 63.453L75.0156 70.1562L68.3125 63.453C68.1678 63.3084 67.9961 63.1936 67.8071 63.1153C67.6181 63.037 67.4155 62.9968 67.2109 62.9968C67.0063 62.9968 66.8038 63.037 66.6148 63.1153C66.4258 63.1936 66.254 63.3084 66.1094 63.453C65.9647 63.5977 65.8499 63.7694 65.7717 63.9584C65.6934 64.1474 65.6531 64.35 65.6531 64.5546C65.6531 64.7592 65.6934 64.9618 65.7717 65.1508C65.8499 65.3398 65.9647 65.5115 66.1094 65.6562L72.8125 72.3593L66.1094 79.0624C65.8913 79.2806 65.743 79.5587 65.6834 79.8613C65.6237 80.164 65.6553 80.4775 65.7742 80.7622C65.8931 81.0468 66.0938 81.2897 66.351 81.46C66.6083 81.6303 66.9103 81.7204 67.2187 81.7187C67.625 81.7187 68.0156 81.5624 68.3281 81.2655L75.0312 74.5624L81.7344 81.2655C82.0469 81.578 82.4375 81.7187 82.8437 81.7187C83.25 81.7187 83.6406 81.5624 83.9531 81.2655C84.098 81.121 84.2129 80.9493 84.2913 80.7603C84.3697 80.5712 84.4101 80.3686 84.4101 80.164C84.4101 79.9593 84.3697 79.7567 84.2913 79.5677C84.2129 79.3787 84.098 79.207 83.9531 79.0624L77.25 72.3593L83.9531 65.6562C84.098 65.5116 84.2129 65.3399 84.2913 65.1509C84.3697 64.9619 84.4101 64.7592 84.4101 64.5546C84.4101 64.35 84.3697 64.1473 84.2913 63.9583C84.2129 63.7693 84.098 63.5976 83.9531 63.453H83.9219Z" fill="#01ABEC"/>
</svg>
